<svg width="40" height="40" viewBox="0 0 40 40" fill="none" xmlns="http://www.w3.org/2000/svg">
<path d="M13.07 4.232C10.99 3.704 8.81 3.928 7.102 4.884C5.362 5.856 4.142 7.58 4.082 9.886C3.99 13.49 4.824 18.326 8.136 24.002C11.406 29.608 15.016 32.968 18.012 34.964C19.904 36.226 21.994 36.26 23.78 35.438C25.54 34.628 26.968 33.01 27.71 31.004C27.8947 30.5051 27.9689 29.972 27.9274 29.4416C27.886 28.9113 27.7299 28.3962 27.47 27.932L25.562 24.528C24.9755 23.4803 24.0315 22.6787 22.9027 22.2696C21.7739 21.8605 20.5355 21.8713 19.414 22.3L18.082 22.81C17.436 23.056 16.842 22.942 16.506 22.61C15.376 21.5 14.568 19.994 14.202 18.37C14.086 17.858 14.322 17.254 14.886 16.828L16.088 15.92C17.0597 15.1867 17.7306 14.1241 17.9747 12.9315C18.2188 11.7389 18.0195 10.4981 17.414 9.442L15.47 6.052C15.2125 5.60319 14.8673 5.21078 14.455 4.89811C14.0426 4.58544 13.5716 4.35891 13.07 4.232ZM6.082 9.94C6.122 8.392 6.906 7.286 8.078 6.63C9.282 5.956 10.926 5.75 12.578 6.17C12.8201 6.23114 13.0473 6.34039 13.2463 6.49123C13.4452 6.64207 13.6118 6.83142 13.736 7.048L15.678 10.438C16.0412 11.0714 16.161 11.8155 16.0148 12.5309C15.8686 13.2463 15.4666 13.8838 14.884 14.324L13.682 15.232C12.642 16.016 11.922 17.36 12.25 18.81C12.694 20.774 13.676 22.636 15.104 24.038C16.148 25.062 17.636 25.122 18.796 24.678L20.128 24.168C20.801 23.9104 21.5442 23.9036 22.2218 24.149C22.8993 24.3943 23.4659 24.8753 23.818 25.504L25.724 28.91C25.964 29.338 26.004 29.85 25.834 30.31C25.254 31.88 24.164 33.058 22.944 33.62C21.75 34.17 20.4 34.154 19.122 33.3C16.38 31.472 12.982 28.338 9.862 22.994C6.74 17.634 6 13.166 6.084 9.94H6.082ZM25.486 4.124C25.2542 3.99511 24.9807 3.96357 24.7256 4.03634C24.4706 4.1091 24.2549 4.2802 24.126 4.512C23.9971 4.7438 23.9656 5.01731 24.0383 5.27236C24.1111 5.52741 24.2822 5.74311 24.514 5.872L25.282 6.3C27.6812 7.63281 29.7221 9.5267 31.2302 11.8198C32.7382 14.1129 33.6687 16.7371 33.942 19.468L34.006 20.098C34.0135 20.2328 34.0483 20.3648 34.1083 20.4858C34.1682 20.6068 34.252 20.7145 34.3547 20.8022C34.4573 20.89 34.5767 20.956 34.7056 20.9964C34.8344 21.0368 34.9702 21.0506 35.1045 21.0371C35.2389 21.0236 35.3692 20.983 35.4874 20.9177C35.6057 20.8525 35.7095 20.764 35.7926 20.6576C35.8757 20.5511 35.9364 20.4289 35.971 20.2984C36.0056 20.1678 36.0135 20.0316 35.994 19.898L35.932 19.27C35.6268 16.2172 34.587 13.2837 32.9012 10.7202C31.2155 8.15682 28.9341 6.03974 26.252 4.55L25.486 4.124ZM23.142 9.484C23.2786 9.25674 23.4999 9.09305 23.7572 9.02892C24.0145 8.96478 24.2867 9.00546 24.514 9.142L24.762 9.29C26.3764 10.2579 27.7614 11.5648 28.8211 13.1205C29.8809 14.6761 30.5902 16.4434 30.9 18.3L30.988 18.834C31.0132 18.965 31.0119 19.0996 30.9842 19.2301C30.9566 19.3605 30.9031 19.4841 30.827 19.5936C30.7509 19.7031 30.6536 19.7962 30.541 19.8676C30.4283 19.9389 30.3025 19.987 30.171 20.009C30.0395 20.031 29.9049 20.0265 29.7752 19.9957C29.6454 19.965 29.5231 19.9085 29.4155 19.8298C29.3079 19.7511 29.2171 19.6516 29.1485 19.5373C29.0799 19.4229 29.0348 19.296 29.016 19.164L28.926 18.63C28.6643 17.0593 28.0647 15.5641 27.1686 14.2478C26.2725 12.9315 25.1014 11.8254 23.736 11.006L23.488 10.856C23.3753 10.7885 23.277 10.6995 23.1987 10.594C23.1205 10.4885 23.0637 10.3687 23.0318 10.2413C22.9998 10.1139 22.9933 9.9814 23.0126 9.85147C23.0318 9.72153 23.0765 9.59667 23.144 9.484H23.142Z" fill="white"/>
</svg>
