<svg width="30" height="30" viewBox="0 0 30 30" fill="none" xmlns="http://www.w3.org/2000/svg">
<g clip-path="url(#clip0_31_104)">
<path d="M9 23H8C8 23.2652 8.10536 23.5196 8.29289 23.7071C8.48043 23.8946 8.73478 24 9 24V23ZM21 23V24C21.2652 24 21.5196 23.8946 21.7071 23.7071C21.8946 23.5196 22 23.2652 22 23H21ZM9 24H21V22H9V24ZM22 23V19H20V23H22ZM8 19V23H10V19H8ZM15 12C13.1435 12 11.363 12.7375 10.0503 14.0503C8.7375 15.363 8 17.1435 8 19H10C10 17.6739 10.5268 16.4021 11.4645 15.4645C12.4021 14.5268 13.6739 14 15 14V12ZM22 19C22 17.1435 21.2625 15.363 19.9497 14.0503C18.637 12.7375 16.8565 12 15 12V14C16.3261 14 17.5979 14.5268 18.5355 15.4645C19.4732 16.4021 20 17.6739 20 19H22ZM28 23C28 23.49 27.772 24.04 27.188 24.632C26.6 25.23 25.698 25.812 24.506 26.324C22.124 27.344 18.764 28 15 28V30C18.968 30 22.608 29.312 25.294 28.16C26.634 27.586 27.784 26.876 28.612 26.038C29.444 25.194 30 24.166 30 23H28ZM15 28C11.236 28 7.876 27.344 5.494 26.324C4.302 25.812 3.4 25.23 2.812 24.632C2.228 24.04 2 23.492 2 23H0C0 24.166 0.556 25.194 1.388 26.038C2.216 26.878 3.366 27.586 4.708 28.162C7.39 29.312 11.03 30 15 30V28ZM2 23C2 22.516 2.22 21.974 2.788 21.39C3.36 20.802 4.238 20.226 5.4 19.716L4.6 17.884C3.288 18.458 2.164 19.164 1.356 19.996C0.54 20.832 0 21.85 0 23H2ZM24.6 19.716C25.762 20.226 26.64 20.802 27.21 21.39C27.778 21.974 28 22.516 28 23H30C30 21.85 29.46 20.832 28.644 19.996C27.836 19.164 26.712 18.458 25.4 17.884L24.6 19.716ZM15 8C14.2044 8 13.4413 7.68393 12.8787 7.12132C12.3161 6.55871 12 5.79565 12 5H10C10 6.32608 10.5268 7.59785 11.4645 8.53553C12.4021 9.47322 13.6739 10 15 10V8ZM18 5C18 5.79565 17.6839 6.55871 17.1213 7.12132C16.5587 7.68393 15.7956 8 15 8V10C16.3261 10 17.5979 9.47322 18.5355 8.53553C19.4732 7.59785 20 6.32608 20 5H18ZM15 2C15.7956 2 16.5587 2.31607 17.1213 2.87868C17.6839 3.44129 18 4.20435 18 5H20C20 3.67392 19.4732 2.40215 18.5355 1.46447C17.5979 0.526784 16.3261 0 15 0V2ZM15 0C13.6739 0 12.4021 0.526784 11.4645 1.46447C10.5268 2.40215 10 3.67392 10 5H12C12 4.20435 12.3161 3.44129 12.8787 2.87868C13.4413 2.31607 14.2044 2 15 2V0Z" fill="white"/>
</g>
<defs>
<clipPath id="clip0_31_104">
<rect width="30" height="30" fill="white"/>
</clipPath>
</defs>
</svg>
