<svg width="30" height="30" viewBox="0 0 30 30" fill="none" xmlns="http://www.w3.org/2000/svg">
<g clip-path="url(#clip0_37_117)">
<path d="M29.5898 0.184153C29.8633 0.407367 30 0.703126 30 1.07143V24.6429C30 24.8661 29.9463 25.067 29.8389 25.2455C29.7314 25.4241 29.5898 25.5525 29.4141 25.6306L20.0391 29.9163C19.8047 30.0391 19.5703 30.0391 19.3359 29.9163L10.3125 25.798L1.28906 29.9163C1.19141 29.9721 1.07422 30 0.9375 30C0.751953 30 0.576172 29.9386 0.410156 29.8158C0.136719 29.5926 0 29.2969 0 28.9286V5.35714C0 5.13393 0.0537109 4.93304 0.161133 4.75447C0.268555 4.57589 0.410156 4.44755 0.585938 4.36942L9.96094 0.0837064C10.1953 -0.0390614 10.4297 -0.0390614 10.6641 0.0837064L19.6875 4.20201L28.7109 0.0837064C29.0234 -0.0613828 29.3164 -0.0279007 29.5898 0.184153ZM10.7812 2.4442V23.7054L19.2188 27.5558V6.29464L10.7812 2.4442ZM1.875 6.07701V27.3382L9.84375 23.7054V2.4442L1.875 6.07701ZM28.125 23.923V2.66183L20.1562 6.29464V27.5558L28.125 23.923Z" fill="white"/>
</g>
<defs>
<clipPath id="clip0_37_117">
<rect width="30" height="30" fill="white"/>
</clipPath>
</defs>
</svg>
