<svg width="40" height="40" viewBox="0 0 40 40" fill="none" xmlns="http://www.w3.org/2000/svg">
<path d="M20 3.32667C20.3315 3.32667 20.6495 3.45836 20.8839 3.69278C21.1183 3.9272 21.25 4.24515 21.25 4.57667V6.66667H24.5833C26.1933 6.66667 27.5 7.97333 27.5 9.58333V18.3333H31.25C32.86 18.3333 34.1667 19.64 34.1667 21.25V33.75C34.1667 34.5236 33.8594 35.2654 33.3124 35.8124C32.7654 36.3594 32.0235 36.6667 31.25 36.6667H8.74999C7.97645 36.6667 7.23458 36.3594 6.6876 35.8124C6.14062 35.2654 5.83333 34.5236 5.83333 33.75V19.7C5.83333 18.6683 6.37833 17.7133 7.26666 17.1883L12.5 14.0967V9.58167C12.5004 8.80841 12.8079 8.06697 13.3549 7.52035C13.9018 6.97373 14.6434 6.66667 15.4167 6.66667H18.75V4.57667C18.75 4.24515 18.8817 3.9272 19.1161 3.69278C19.3505 3.45836 19.6685 3.32667 20 3.32667ZM15 13.3633C16.35 13.5633 17.5 14.7067 17.5 16.2533V34.165H22.5V21.2483C22.5 20.547 22.7528 19.8691 23.2119 19.339C23.671 18.8088 24.3058 18.4619 25 18.3617V9.58333C25 9.47283 24.9561 9.36685 24.878 9.28871C24.7998 9.21057 24.6938 9.16667 24.5833 9.16667H15.4167C15.3062 9.16667 15.2002 9.21057 15.122 9.28871C15.0439 9.36685 15 9.47283 15 9.58333V13.365V13.3633ZM25.4167 20.8317C25.3062 20.8317 25.2002 20.8756 25.122 20.9537C25.0439 21.0318 25 21.1378 25 21.2483V34.165H31.25C31.3605 34.165 31.4665 34.1211 31.5446 34.043C31.6228 33.9648 31.6667 33.8588 31.6667 33.7483V21.2483C31.6667 21.1378 31.6228 21.0318 31.5446 20.9537C31.4665 20.8756 31.3605 20.8317 31.25 20.8317H25.4167ZM14.3717 15.895L8.53833 19.3417C8.47597 19.3784 8.42428 19.4308 8.38833 19.4937C8.35238 19.5565 8.33343 19.6276 8.33333 19.7V33.75C8.33333 33.9783 8.51999 34.1667 8.74999 34.1667H15V16.2517C14.9999 16.1782 14.9804 16.1062 14.9435 16.0427C14.9066 15.9792 14.8535 15.9267 14.7897 15.8903C14.726 15.8539 14.6537 15.835 14.5803 15.8356C14.5069 15.8361 14.4349 15.856 14.3717 15.8933V15.895Z" fill="white"/>
</svg>
