<svg width="30" height="30" viewBox="0 0 30 30" fill="none" xmlns="http://www.w3.org/2000/svg">
<g clip-path="url(#clip0_37_113)">
<path d="M28.0917 14.4083L15.5917 1.90834C15.4355 1.75313 15.2243 1.66601 15.0042 1.66601C14.784 1.66601 14.5728 1.75313 14.4167 1.90834L1.91667 14.4083C1.78014 14.5678 1.70881 14.7728 1.71691 14.9825C1.72501 15.1923 1.81195 15.3912 1.96036 15.5396C2.10878 15.6881 2.30773 15.775 2.51746 15.7831C2.72719 15.7912 2.93225 15.7199 3.09167 15.5833L15 3.675L26.9083 15.5917C27.0678 15.7282 27.2728 15.7995 27.4825 15.7914C27.6923 15.7833 27.8912 15.6964 28.0396 15.548C28.188 15.3996 28.275 15.2006 28.2831 14.9909C28.2912 14.7811 28.2199 14.5761 28.0833 14.4167L28.0917 14.4083Z" fill="white"/>
<path d="M23.3333 26.6667H19.1667V18.3333H10.8333V26.6667H6.66667V15L5 16.6667V26.6667C5 27.1087 5.17559 27.5326 5.48816 27.8452C5.80072 28.1577 6.22464 28.3333 6.66667 28.3333H12.5V20H17.5V28.3333H23.3333C23.7754 28.3333 24.1993 28.1577 24.5118 27.8452C24.8244 27.5326 25 27.1087 25 26.6667V16.4667L23.3333 14.8V26.6667Z" fill="white"/>
</g>
<defs>
<clipPath id="clip0_37_113">
<rect width="30" height="30" fill="white"/>
</clipPath>
</defs>
</svg>
